# xmcd
#
# Track frame offsets: 
#        150
#        15431
#        30247
#        42029
#        61781
#        80099
#        97821
#        115413
#        133128
#        151049
#        168616
#        183631
#        199280
#        211738
#        229868
#        247258
#        262383
#        276723
#        290937
#        310094
#
# Disc length: 4320 seconds
#
# Revision: 0
# Processed by: cddbd v1.5.2PL0 Copyright (c) Steve Scherf et al.
# Submitted via: ExactAudioCopy v1.1
#
DISCID=2910de14
DTITLE=Erik Van Neygen - Liedjes Die Ik Voor Je Koos
DYEAR=2017
DGENRE=Chanson
TTITLE0=Telkens Weer
TTITLE1=Hotel Stil Verdriet
TTITLE2=Stille Brieven
TTITLE3=Ticket Naar Eden
TTITLE4=Vijf Over Vijf
TTITLE5=Praten In Je Slaap
TTITLE6=De Herinnering Blijft
TTITLE7=Het Huis Aan Het Water
TTITLE8=Als Je Trein Vertrekt
TTITLE9=De Hemel Is Ver
TTITLE10=Vanavond Schrijf Ik Jou Een Brief
TTITLE11=Jas Met Duizend Kleuren
TTITLE12=De Canadees
TTITLE13=Bleke Lena
TTITLE14=Genieten Van Het Leven
TTITLE15=Liesje
TTITLE16=Na Vandaag
TTITLE17=Diep In Haar Ogen (Met Sanne En Maartje)
TTITLE18=Over Zeven Bruggen
TTITLE19=Fiets (Met Roel Van Bambost En Hans De Booij)
EXTD=
EXTT0=
EXTT1=
EXTT2=
EXTT3=
EXTT4=
EXTT5=
EXTT6=
EXTT7=
EXTT8=
EXTT9=
EXTT10=
EXTT11=
EXTT12=
EXTT13=
EXTT14=
EXTT15=
EXTT16=
EXTT17=
EXTT18=
EXTT19=
PLAYORDER=
